<svg width="35" height="35" viewBox="0 0 35 35" fill="none" xmlns="http://www.w3.org/2000/svg">
<g id="account_circle_24px">
<path id="icon/action/account_circle_24px" fill-rule="evenodd" clip-rule="evenodd" d="M17.5003 2.9165C9.45033 2.9165 2.91699 9.44984 2.91699 17.4998C2.91699 25.5498 9.45033 32.0832 17.5003 32.0832C25.5503 32.0832 32.0837 25.5498 32.0837 17.4998C32.0837 9.44984 25.5503 2.9165 17.5003 2.9165ZM10.3107 26.6582C10.9378 25.3457 14.7587 24.0623 17.5003 24.0623C20.242 24.0623 24.0774 25.3457 24.6899 26.6582C22.7066 28.2332 20.2128 29.1665 17.5003 29.1665C14.7878 29.1665 12.2941 28.2332 10.3107 26.6582ZM17.5003 21.1457C19.6295 21.1457 24.6899 22.0061 26.7753 24.5436C28.2628 22.5894 29.167 20.154 29.167 17.4998C29.167 11.0686 23.9316 5.83317 17.5003 5.83317C11.0691 5.83317 5.83366 11.0686 5.83366 17.4998C5.83366 20.154 6.73783 22.5894 8.22533 24.5436C10.3107 22.0061 15.3712 21.1457 17.5003 21.1457ZM17.5003 8.74984C14.6712 8.74984 12.3962 11.0248 12.3962 13.854C12.3962 16.6832 14.6712 18.9582 17.5003 18.9582C20.3295 18.9582 22.6045 16.6832 22.6045 13.854C22.6045 11.0248 20.3295 8.74984 17.5003 8.74984ZM15.3128 13.854C15.3128 15.0644 16.2899 16.0415 17.5003 16.0415C18.7107 16.0415 19.6878 15.0644 19.6878 13.854C19.6878 12.6436 18.7107 11.6665 17.5003 11.6665C16.2899 11.6665 15.3128 12.6436 15.3128 13.854Z" fill="#4976EF" fill-opacity="0.5"/>
</g>
</svg>
