<svg width="35" height="35" viewBox="0 0 35 35" fill="none" xmlns="http://www.w3.org/2000/svg">
<path fill-rule="evenodd" clip-rule="evenodd" d="M27.7083 4.375H7.29167C5.6875 4.375 4.375 5.6875 4.375 7.29167V17.5C4.375 19.1042 5.6875 20.4167 7.29167 20.4167H27.7083C29.3125 20.4167 30.625 19.1042 30.625 17.5V7.29167C30.625 5.6875 29.3125 4.375 27.7083 4.375ZM7.29167 14.5833H11.8563C12.1625 15.7208 12.8333 16.7271 13.7083 17.5H7.29167V14.5833ZM21.2917 17.5H27.7083V14.5833H23.1438C22.8375 15.7208 22.1667 16.7271 21.2917 17.5ZM27.7083 11.6667H20.4167V13.125C20.4167 14.6854 19.0604 16.0417 17.5 16.0417C15.9396 16.0417 14.5833 14.6854 14.5833 13.125V11.6667H7.29167V7.29167H27.7083V11.6667ZM20.4167 21.875H24.7917H30.625V27.7083C30.625 29.3125 29.3125 30.625 27.7083 30.625H7.29167C5.6875 30.625 4.375 29.3125 4.375 27.7083V21.875H14.5833V23.3333C14.5833 24.0187 14.8604 24.6458 15.2833 25.1562C15.8229 25.8125 16.625 26.25 17.5 26.25C18.375 26.25 19.1771 25.8125 19.7167 25.1562C20.1396 24.6458 20.4167 24.0187 20.4167 23.3333V21.875ZM7.29167 24.7917H11.8563C11.8769 24.8844 11.9121 24.9699 11.9464 25.0533L11.9464 25.0533C11.9606 25.0879 11.9747 25.1221 11.9875 25.1562C12.3375 26.1479 12.9354 27.0229 13.7083 27.7083H7.29167V24.7917ZM21.2917 27.7083H27.7083V24.7917H23.1438C23.1231 24.8844 23.0879 24.9699 23.0536 25.0533C23.0394 25.0879 23.0253 25.1221 23.0125 25.1562C22.6771 26.1479 22.0792 27.0229 21.2917 27.7083Z" fill="#4976EF" fill-opacity="0.5"/>
</svg>
