<svg width="24" height="24" viewBox="0 0 24 24" fill="none" xmlns="http://www.w3.org/2000/svg">
<path d="M24 12C24 18.6273 18.6273 24 12 24C5.37333 24 0 18.6273 0 12C0 5.37333 5.37333 0 12 0C18.6273 0 24 5.37333 24 12Z" fill="#FFCC4D"/>
<path d="M16.9901 19.9195C16.9601 19.8002 16.2114 17.0002 12.0001 17.0002C7.78807 17.0002 7.04007 19.8002 7.01007 19.9195C6.9734 20.0642 7.03873 20.2142 7.16807 20.2888C7.29807 20.3615 7.46073 20.3415 7.56807 20.2375C7.58073 20.2248 8.87073 19.0002 12.0001 19.0002C15.1294 19.0002 16.4201 20.2248 16.4321 20.2368C16.4961 20.3002 16.5814 20.3335 16.6667 20.3335C16.7227 20.3335 16.7794 20.3195 16.8307 20.2908C16.9614 20.2162 17.0267 20.0648 16.9901 19.9195ZM10.4714 11.5288C8.3014 9.35883 4.81407 9.3335 4.66673 9.3335C4.29873 9.3335 4.00073 9.6315 4.00073 9.99883C4.00007 10.3668 4.29807 10.6655 4.66607 10.6668C4.6854 10.6668 5.9494 10.6815 7.3214 11.1582C6.92607 11.5848 6.66673 12.2475 6.66673 13.0002C6.66673 14.2895 7.41273 15.3335 8.3334 15.3335C9.25407 15.3335 10.0001 14.2895 10.0001 13.0002C10.0001 12.8842 9.9874 12.7735 9.9754 12.6622C9.98407 12.6622 9.99207 12.6668 10.0001 12.6668C10.1707 12.6668 10.3414 12.6015 10.4714 12.4715C10.7321 12.2108 10.7321 11.7895 10.4714 11.5288ZM19.3334 9.3335C19.1861 9.3335 15.6994 9.35883 13.5287 11.5288C13.2681 11.7895 13.2681 12.2108 13.5287 12.4715C13.6587 12.6015 13.8294 12.6668 14.0001 12.6668C14.0087 12.6668 14.0161 12.6622 14.0241 12.6622C14.0134 12.7735 14.0001 12.8842 14.0001 13.0002C14.0001 14.2895 14.7461 15.3335 15.6667 15.3335C16.5874 15.3335 17.3334 14.2895 17.3334 13.0002C17.3334 12.2475 17.0741 11.5848 16.6787 11.1582C18.0507 10.6815 19.3147 10.6668 19.3347 10.6668C19.7021 10.6655 20.0001 10.3668 19.9994 9.99883C19.9987 9.6315 19.7014 9.3335 19.3334 9.3335Z" fill="#292F33"/>
</svg>