<svg width="35" height="35" viewBox="0 0 35 35" fill="none" xmlns="http://www.w3.org/2000/svg">
<path fill-rule="evenodd" clip-rule="evenodd" d="M1 17.5C1 8.3873 8.3873 1 17.5 1C26.6127 1 34 8.3873 34 17.5C34 26.6127 26.6127 34 17.5 34C8.3873 34 1 26.6127 1 17.5Z" fill="white" stroke="black"/>
<path fill-rule="evenodd" clip-rule="evenodd" d="M20.1862 10.7361C20.8162 9.92285 21.2938 8.7734 21.121 7.6001C20.0914 7.67165 18.8878 8.33043 18.1856 9.18911C17.5454 9.96715 17.0193 11.1246 17.2248 12.2479C18.3504 12.2831 19.5122 11.6084 20.1862 10.7361ZM25.75 21.7727C25.2995 22.7768 25.0827 23.2255 24.5024 24.1148C23.6929 25.3563 22.5515 26.9021 21.1357 26.9135C19.8791 26.9271 19.555 26.09 17.8491 26.1002C16.1431 26.1093 15.7875 26.9294 14.5286 26.9169C13.114 26.9044 12.0324 25.5096 11.2229 24.2681C8.95804 20.7993 8.71981 16.7274 10.1164 14.5614C11.11 13.0235 12.677 12.1239 14.1493 12.1239C15.6475 12.1239 16.5902 12.9508 17.831 12.9508C19.0346 12.9508 19.7673 12.1217 21.5004 12.1217C22.8123 12.1217 24.2021 12.8406 25.1911 14.0809C21.9486 15.8687 22.4736 20.5267 25.75 21.7727Z" fill="#0B0B0A"/>
</svg>
