<svg width="35" height="35" viewBox="0 0 35 35" fill="none" xmlns="http://www.w3.org/2000/svg">
<path fill-rule="evenodd" clip-rule="evenodd" d="M17.5003 13.125V21.875C17.5003 23.4792 16.1878 24.7917 14.5837 24.7917H5.83366C4.22949 24.7917 2.91699 23.4792 2.91699 21.875V13.125C2.91699 11.5208 4.22949 10.2083 5.83366 10.2083H14.5837C16.1878 10.2083 17.5003 11.5208 17.5003 13.125ZM32.0837 10.2083H20.417V13.125H32.0837V10.2083ZM32.0837 18.9583H20.417V16.0417H32.0837V18.9583ZM32.0837 24.7917H20.417V21.875H32.0837V24.7917ZM12.0316 17.5L15.3128 21.875H5.10449L7.65658 18.5938L9.47949 20.7958L12.0316 17.5Z" fill="#4976EF" fill-opacity="0.5"/>
</svg>
