<svg width="35" height="35" viewBox="0 0 35 35" fill="none" xmlns="http://www.w3.org/2000/svg">
<g id="attach_file_24px">
<path id="icon/editor/attach_file_24px" d="M23.3337 8.75016V25.521C23.3337 28.7439 20.7232 31.3543 17.5003 31.3543C14.2774 31.3543 11.667 28.7439 11.667 25.521V7.29183C11.667 5.27933 13.3003 3.646 15.3128 3.646C17.3253 3.646 18.9587 5.27933 18.9587 7.29183V22.6043C18.9587 23.4064 18.3024 24.0627 17.5003 24.0627C16.6982 24.0627 16.042 23.4064 16.042 22.6043V8.75016H13.8545V22.6043C13.8545 24.6168 15.4878 26.2502 17.5003 26.2502C19.5128 26.2502 21.1462 24.6168 21.1462 22.6043V7.29183C21.1462 4.06891 18.5357 1.4585 15.3128 1.4585C12.0899 1.4585 9.47949 4.06891 9.47949 7.29183V25.521C9.47949 29.9543 13.067 33.5418 17.5003 33.5418C21.9337 33.5418 25.5212 29.9543 25.5212 25.521V8.75016H23.3337Z" fill="#4976EF" fill-opacity="0.5"/>
</g>
</svg>
