<svg width="20" height="20" viewBox="0 0 20 20" fill="none" xmlns="http://www.w3.org/2000/svg">
<path d="M20 14.4444C20 15.6717 18.9465 16.6667 17.6471 16.6667H2.35294C1.05353 16.6667 0 15.6717 0 14.4444V3.50722C0 2.28 3.40647 0 4.70588 0H16.8382C18.6582 0 20 1.28444 20 2.98611V14.4444Z" fill="#AAB8C2"/>
<path d="M18.8236 16.6666C18.8236 17.8938 17.77 18.8888 16.4706 18.8888H3.52946C2.23004 18.8888 1.17651 17.8938 1.17651 16.6666V3.33326C1.17651 1.04493 1.16416 1.11104 4.11769 1.11104H16.4706C17.77 1.11104 18.8236 2.10604 18.8236 3.33326V16.6666Z" fill="#F5F8FA"/>
<path d="M17.6471 17.2222C17.6471 18.1427 16.8571 18.8888 15.8824 18.8888H1.76471C0.79 18.8888 0 18.1427 0 17.2222V3.88883C0 2.96828 0.79 2.22217 1.76471 2.22217H15.8824C16.8571 2.22217 17.6471 2.96828 17.6471 3.88883V17.2222Z" fill="white"/>
<path d="M17.6472 17.7779C17.6472 19.0052 16.5937 20.0002 15.2943 20.0002H2.94132C1.64191 20.0002 0.588379 19.0052 0.588379 17.7779V5.55572C0.588379 4.3285 1.64191 3.3335 2.94132 3.3335H15.2943C16.5937 3.3335 17.6472 4.3285 17.6472 5.55572V17.7779Z" fill="#AAB8C2"/>
<path d="M16.4707 17.7777C16.4707 19.0049 15.4172 19.9999 14.1178 19.9999H2.94132C1.64191 19.9999 0.588379 19.0049 0.588379 17.7777V6.66656C0.588379 5.43934 1.64191 4.44434 2.94132 4.44434H14.3148C15.6143 4.44434 16.4707 5.25322 16.4707 6.48045V17.7777Z" fill="#E1E8ED"/>
<path d="M2.94118 3.33333C1.94824 3.33333 1.92294 2.26556 2.35294 1.80556C2.84235 1.28278 3.60294 1.11111 4.96353 1.11111H5.88235V0H4.28294C1.94824 0 0 1.38889 0 2.98611V17.7778C0 19.005 1.05353 20 2.35294 20H3.52941V3.33333H2.94118Z" fill="#AAB8C2"/>
<path d="M9.41162 2.22217V14.9999L11.7646 11.6666L14.1175 14.9999V2.22217H9.41162Z" fill="#DD2E44"/>
<path d="M14.1176 15.5554C13.9247 15.5554 13.7388 15.4654 13.6282 15.3082L11.7647 12.6682L9.90113 15.3082C9.75702 15.5121 9.48878 15.6032 9.24113 15.5315C8.99349 15.4604 8.82349 15.2443 8.82349 14.9998V2.22206C8.82349 1.91539 9.08702 1.6665 9.41172 1.6665H14.1176C14.4429 1.6665 14.7058 1.91539 14.7058 2.22206V14.9998C14.7058 15.2443 14.5364 15.4604 14.2882 15.5315C14.2317 15.5476 14.1747 15.5554 14.1176 15.5554ZM11.7647 11.1109C11.9611 11.1109 12.1447 11.2037 12.2541 11.3582L13.5294 13.1648V2.77762H9.99996V13.1648L11.2753 11.3582C11.3847 11.2037 11.5682 11.1109 11.7647 11.1109Z" fill="#DD2E44"/>
<path d="M8.23535 1.11133H15.2942V2.22244H8.23535V1.11133Z" fill="#F5F8FA"/>
</svg>