<svg width="29" height="30" viewBox="0 0 29 30" fill="none" xmlns="http://www.w3.org/2000/svg">
<path d="M19.3332 7.25309V21.1489C19.3332 23.8193 17.1703 25.9823 14.4998 25.9823C11.8294 25.9823 9.6665 23.8193 9.6665 21.1489V6.04476C9.6665 4.37726 11.0198 3.02393 12.6873 3.02393C14.3548 3.02393 15.7082 4.37726 15.7082 6.04476V18.7323C15.7082 19.3968 15.1644 19.9406 14.4998 19.9406C13.8353 19.9406 13.2915 19.3968 13.2915 18.7323V7.25309H11.479V18.7323C11.479 20.3998 12.8323 21.7531 14.4998 21.7531C16.1673 21.7531 17.5207 20.3998 17.5207 18.7323V6.04476C17.5207 3.37434 15.3578 1.21143 12.6873 1.21143C10.0169 1.21143 7.854 3.37434 7.854 6.04476V21.1489C7.854 24.8223 10.8265 27.7948 14.4998 27.7948C18.1732 27.7948 21.1457 24.8223 21.1457 21.1489V7.25309H19.3332Z" fill="#3D5879"/>
</svg>