<svg width="19" height="16" viewBox="0 0 19 16" fill="none" xmlns="http://www.w3.org/2000/svg">
<path fill-rule="evenodd" clip-rule="evenodd" d="M18.0645 6.87767C18.0645 3.07962 14.2523 0 9.54862 0C4.8455 0 1.03223 3.07962 1.03223 6.87767C1.03223 10.6757 4.8455 13.7553 9.54862 13.7553C9.99485 13.7553 10.4296 13.7188 10.8576 13.6655C11.6296 14.9707 13.1117 15.8871 14.8434 16C14.3935 15.3861 14.1298 14.6525 14.1298 13.863C14.1298 13.3765 14.2163 12.9554 14.3972 12.5275C16.6122 11.286 18.0645 9.21952 18.0645 6.87767Z" fill="#3D5879"/>
<path fill-rule="evenodd" clip-rule="evenodd" d="M0.709522 7.23055C0.709522 7.0551 0.726254 6.88229 0.742462 6.70947C0.269796 7.43278 0 8.25536 0 9.12994C0 10.9138 1.11265 12.4864 2.80776 13.4199C2.83234 13.5654 2.85116 13.7124 2.85116 13.8721C2.85116 14.4673 2.65247 15.0204 2.31366 15.4837C3.40226 15.4122 4.36014 14.9179 4.98496 14.1836C5.44298 14.2671 5.91722 14.316 6.40661 14.316C7.05026 14.316 7.67089 14.2372 8.25806 14.0938C4.0093 13.6951 0.709522 10.7762 0.709522 7.23055Z" fill="#3D5879"/>
</svg>
