<svg width="24" height="24" viewBox="0 0 24 24" fill="none" xmlns="http://www.w3.org/2000/svg">
<path d="M12 0C5.37267 0 0 5.37267 0 12C0 18.6273 5.37267 24 12 24C18.6273 24 24 18.6273 24 12C24 5.37267 18.6273 0 12 0ZM20.6667 12C20.6667 13.71 20.1647 15.3 19.31 16.6433L7.35733 4.69067C8.7 3.83533 10.29 3.33333 12 3.33333C16.7867 3.33333 20.6667 7.214 20.6667 12ZM3.33333 12C3.33333 10.29 3.83533 8.7 4.69067 7.35733L16.6433 19.31C15.3 20.1647 13.71 20.6667 12 20.6667C7.214 20.6667 3.33333 16.7867 3.33333 12Z" fill="#DD2E44"/>
</svg>