<svg width="27" height="28" viewBox="0 0 27 28" fill="none" xmlns="http://www.w3.org/2000/svg">
<path fill-rule="evenodd" clip-rule="evenodd" d="M13.4865 0.00292969C6.0345 0.00292969 0 6.05093 0 13.5029C0 20.9549 6.0345 27.0029 13.4865 27.0029C20.952 27.0029 27 20.9549 27 13.5029C27 6.05093 20.952 0.00292969 13.4865 0.00292969ZM13.5 24.303C7.53303 24.303 2.70003 19.47 2.70003 13.503C2.70003 7.53596 7.53303 2.70296 13.5 2.70296C19.467 2.70296 24.3 7.53596 24.3 13.503C24.3 19.47 19.467 24.303 13.5 24.303ZM20.25 10.1279C20.25 11.2484 19.3455 12.1529 18.225 12.1529C17.1045 12.1529 16.2 11.2484 16.2 10.1279C16.2 9.00744 17.1045 8.10294 18.225 8.10294C19.3455 8.10294 20.25 9.00744 20.25 10.1279ZM8.775 12.1529C9.8955 12.1529 10.8 11.2484 10.8 10.1279C10.8 9.00744 9.8955 8.10294 8.775 8.10294C7.6545 8.10294 6.75 9.00744 6.75 10.1279C6.75 11.2484 7.6545 12.1529 8.775 12.1529ZM20.3985 16.203C19.3185 18.957 16.6455 20.928 13.5 20.928C10.3545 20.928 7.68155 18.957 6.60155 16.203H20.3985Z" fill="#3D5879"/>
</svg>