<svg width="35" height="35" viewBox="0 0 35 35" fill="none" xmlns="http://www.w3.org/2000/svg">
<path fill-rule="evenodd" clip-rule="evenodd" d="M17.5 34C26.6127 34 34 26.6127 34 17.5C34 8.3873 26.6127 1 17.5 1C8.3873 1 1 8.3873 1 17.5C1 26.6127 8.3873 34 17.5 34Z" fill="white" stroke="#E3E3E3"/>
<path fill-rule="evenodd" clip-rule="evenodd" d="M24.1321 20.831C26.4947 19.5212 28.299 18.5208 28.4631 18.4297C28.9527 18.1583 29.4657 17.4656 28.4631 16.9119C28.1409 16.7336 26.3851 15.7638 24.1294 14.5173L21.0269 17.684L24.1321 20.831Z" fill="#FFE300" stroke="#E3E3E3"/>
<path fill-rule="evenodd" clip-rule="evenodd" d="M21.0266 17.6841L11.1035 27.8118C11.3276 27.8406 11.5971 27.7805 11.9072 27.6086C12.549 27.2528 19.4417 23.4312 24.132 20.8308L21.0266 17.6841V17.6841Z" fill="#FF4E54" stroke="#E3E3E3"/>
<path fill-rule="evenodd" clip-rule="evenodd" d="M21.0268 17.6841L24.1293 14.5174C24.1293 14.5174 12.5978 8.14491 11.9074 7.76342C11.6421 7.61675 11.3528 7.56556 11.0967 7.62332L21.0268 17.6841Z" fill="#00F085" stroke="#E3E3E3"/>
<path fill-rule="evenodd" clip-rule="evenodd" d="M21.0267 17.6839L11.0964 7.62329C10.6862 7.71596 10.3501 8.07553 10.3501 8.79827C10.3501 9.97231 10.3501 25.6188 10.3501 26.6045C10.3501 27.2851 10.6145 27.7638 11.1035 27.8116L21.0267 17.6839Z" fill="#00E0FF" stroke="#E3E3E3"/>
</svg>
