<svg width="33" height="27" viewBox="0 0 33 27" fill="none" xmlns="http://www.w3.org/2000/svg">
<path fill-rule="evenodd" clip-rule="evenodd" d="M4.71429 13.5C4.71429 6.045 11.0471 0 18.8571 0C26.6671 0 33 6.045 33 13.5C33 20.955 26.6671 27 18.8571 27C14.9443 27 11.4243 25.485 8.86286 23.04L11.0943 20.91C13.0743 22.815 15.8243 24 18.8571 24C24.9386 24 29.8571 19.305 29.8571 13.5C29.8571 7.695 24.9386 3 18.8571 3C12.7757 3 7.85714 7.695 7.85714 13.5H12.5714L6.28571 19.485L0 13.5H4.71429ZM17.2857 15V7.5H19.6429V13.725L25.1743 16.86L23.9643 18.78L17.2857 15Z" fill="#3D5879"/>
</svg>