<svg width="35" height="35" viewBox="0 0 35 35" fill="none" xmlns="http://www.w3.org/2000/svg">
<path fill-rule="evenodd" clip-rule="evenodd" d="M1 17.5C1 8.3873 8.3873 1 17.5 1C26.6127 1 34 8.3873 34 17.5C34 26.6127 26.6127 34 17.5 34C8.3873 34 1 26.6127 1 17.5Z" fill="white" stroke="#5F7896"/>
<path fill-rule="evenodd" clip-rule="evenodd" d="M17.5001 7.6001C12.0325 7.6001 7.6001 11.7041 7.6001 16.7668C7.6001 19.6515 9.03972 22.2247 11.2895 23.905V27.4001L14.6604 25.5501C15.56 25.799 16.513 25.9334 17.5001 25.9334C22.9677 25.9334 27.4001 21.8294 27.4001 16.7668C27.4001 11.7041 22.9677 7.6001 17.5001 7.6001ZM18.2236 19.7L15.742 17.1255L10.8999 19.7L16.2262 14.2L18.7683 16.7745L23.5499 14.2L18.2236 19.7Z" fill="#E8A75D"/>
</svg>
