<svg width="24" height="24" viewBox="0 0 24 24" fill="none" xmlns="http://www.w3.org/2000/svg">
<path d="M24 12C24 18.6273 18.6273 24 12 24C5.37333 24 0 18.6273 0 12C0 5.37333 5.37333 0 12 0C18.6273 0 24 5.37333 24 12Z" fill="#ECBB43"/>
<path d="M7.66667 13.3332C8.58714 13.3332 9.33333 12.2885 9.33333 10.9998C9.33333 9.71117 8.58714 8.6665 7.66667 8.6665C6.74619 8.6665 6 9.71117 6 10.9998C6 12.2885 6.74619 13.3332 7.66667 13.3332Z" fill="#664500"/>
<path d="M16.3332 13.3332C17.2536 13.3332 17.9998 12.2885 17.9998 10.9998C17.9998 9.71117 17.2536 8.6665 16.3332 8.6665C15.4127 8.6665 14.6665 9.71117 14.6665 10.9998C14.6665 12.2885 15.4127 13.3332 16.3332 13.3332Z" fill="#664500"/>
<path d="M16.6665 17.3333H7.33317C6.96517 17.3333 6.6665 17.0353 6.6665 16.6667C6.6665 16.298 6.96517 16 7.33317 16H16.6665C17.0352 16 17.3332 16.298 17.3332 16.6667C17.3332 17.0353 17.0352 17.3333 16.6665 17.3333Z" fill="#664500"/>
</svg>