<svg width="25" height="20" viewBox="0 0 25 20" fill="none" xmlns="http://www.w3.org/2000/svg">
<path d="M25 16.9231C25 18.6223 23.7562 20 22.2222 20H2.77778C1.24375 20 0 18.6223 0 16.9231V3.07692C0 1.37769 1.24375 0 2.77778 0H22.2222C23.7562 0 25 1.37769 25 3.07692V16.9231Z" fill="#CCD6DD"/>
<path d="M8.29855 9.72021L0.442301 18.4225C0.423551 18.4441 0.416607 18.471 0.400635 18.4925C0.636746 18.931 0.965912 19.2948 1.36175 19.5571C1.38188 19.5394 1.4055 19.5317 1.42425 19.511L9.28119 10.8079C9.55202 10.5071 9.55202 10.021 9.28119 9.72021C9.00897 9.41944 8.57008 9.41944 8.29855 9.72021ZM24.5992 18.4925C24.5847 18.471 24.5763 18.4441 24.5576 18.4233L16.702 9.72021C16.4298 9.41944 15.9909 9.41944 15.7194 9.72021C15.4479 10.0217 15.4479 10.5079 15.7194 10.8079L23.5756 19.511C23.5937 19.531 23.6187 19.5394 23.6381 19.5571C24.0347 19.2956 24.3631 18.931 24.5992 18.4925Z" fill="#99AAB5"/>
<path d="M22.2222 0H2.77778C1.24375 0 0 1.37769 0 3.07692V3.86923L10.0889 15.02C11.4042 16.4762 13.5528 16.4762 14.8694 15.02L25 3.85308V3.07692C25 1.37769 23.7562 0 22.2222 0Z" fill="#99AAB5"/>
<path d="M22.2222 0H2.77778C1.675 0 0.729861 0.718462 0.28125 1.75L10.5354 13.1092C11.6201 14.3108 13.3799 14.3108 14.4639 13.1092L24.7188 1.75C24.2701 0.718462 23.3257 0 22.2222 0Z" fill="#E1E8ED"/>
</svg>