<svg width="19" height="19" viewBox="0 0 19 19" fill="none" xmlns="http://www.w3.org/2000/svg">
<path d="M18.02 9.27272C18.02 9.00883 17.9525 8.76121 17.8393 8.53614C17.0846 6.26662 13.5513 6.43241 8.52542 6.32171C7.68515 6.30335 8.16579 5.37844 8.4607 3.34815C8.65262 2.02767 7.73918 0 6.20384 0C3.67233 0 6.1076 1.86136 3.86931 6.46441C2.67334 8.92384 0 7.54618 0 10.0166V15.6401C0 16.6017 0.101306 17.5261 1.55223 17.6782C2.95868 17.8256 2.64239 18.76 4.67131 18.76H14.8266C15.8611 18.76 16.7025 17.9752 16.7025 17.0109C16.7025 16.6111 16.5522 16.2471 16.3096 15.9522C16.8837 15.6527 17.2777 15.0871 17.2777 14.4313C17.2777 14.0326 17.1279 13.6685 16.8859 13.3742C17.4617 13.0752 17.8568 12.5091 17.8568 11.8523C17.8568 11.3754 17.6497 10.9431 17.3159 10.6268C17.742 10.3062 18.02 9.82147 18.02 9.27272Z" fill="#F0C587"/>
<path d="M11.3025 11.0211H16.1449C16.8034 11.0211 17.4213 10.6926 17.7579 10.1644C17.8963 9.94664 17.8192 9.66491 17.5851 9.53533C17.3515 9.40575 17.0493 9.47867 16.9103 9.69639C16.751 9.94769 16.4567 10.103 16.1443 10.103H11.186C10.6946 10.103 10.295 9.73049 10.295 9.2725C10.295 8.8145 10.6946 8.44202 11.186 8.44202H14.4992C14.7711 8.44202 14.9917 8.23636 14.9917 7.98297C14.9917 7.72958 14.7711 7.52393 14.4992 7.52393H11.1854C10.151 7.52393 9.30957 8.30824 9.30957 9.2725C9.30957 9.81023 9.5769 10.2861 9.98775 10.6071C9.64163 10.9245 9.42607 11.3652 9.42607 11.8521C9.42607 12.3914 9.69509 12.8688 10.1082 13.1893C9.76432 13.5062 9.55102 13.9453 9.55102 14.4311C9.55102 15.0187 9.86562 15.537 10.344 15.8544C10.0491 16.1634 9.8645 16.5658 9.8645 17.0107C9.8645 17.9749 10.7059 18.7593 11.7403 18.7593H14.8268C15.4853 18.7593 16.1038 18.4314 16.4404 17.9031C16.5794 17.6854 16.5023 17.4036 16.2687 17.274C16.0346 17.1455 15.7323 17.2163 15.5939 17.4341C15.4335 17.6854 15.1391 17.8412 14.8268 17.8412H11.7403C11.249 17.8412 10.8494 17.4687 10.8494 17.0107C10.8494 16.5527 11.249 16.1802 11.7403 16.1802H15.402C16.0605 16.1802 16.6795 15.8518 17.0155 15.3235C17.1546 15.1053 17.0775 14.8235 16.8439 14.6945C16.6081 14.5628 16.307 14.6368 16.1691 14.8545C16.0064 15.11 15.7194 15.2621 15.402 15.2621H11.4269C10.9355 15.2621 10.5359 14.8891 10.5359 14.4311C10.5359 13.9731 10.9355 13.6006 11.4269 13.6006H15.9805C16.639 13.6006 17.2576 13.2727 17.5941 12.7445C17.7331 12.5267 17.656 12.245 17.4225 12.1154C17.1878 11.9864 16.8861 12.0577 16.7476 12.2754C16.585 12.5304 16.298 12.6825 15.9805 12.6825H11.3025C10.8111 12.6825 10.4115 12.3101 10.4115 11.8521C10.4115 11.3941 10.8106 11.0211 11.3025 11.0211Z" fill="#D19F77"/>
</svg>
