<svg width="33" height="33" viewBox="0 0 33 33" fill="none" xmlns="http://www.w3.org/2000/svg">
<path fill-rule="evenodd" clip-rule="evenodd" d="M0 16.5C0 7.3873 7.3873 0 16.5 0C25.6127 0 33 7.3873 33 16.5C33 25.6127 25.6127 33 16.5 33C7.3873 33 0 25.6127 0 16.5Z" fill="#0077B5"/>
<path fill-rule="evenodd" clip-rule="evenodd" d="M11.9068 10.1906C11.8826 9.08903 11.0948 8.25 9.81565 8.25C8.53648 8.25 7.7002 9.08903 7.7002 10.1906C7.7002 11.2694 8.51176 12.1326 9.76712 12.1326H9.79101C11.0948 12.1326 11.9068 11.2694 11.9068 10.1906ZM11.6602 13.6661H7.9209V24.901H11.6602V13.6661ZM20.8401 13.4022C23.3007 13.4022 25.1454 15.0083 25.1454 18.4592L25.1453 24.901H21.4062V18.8903C21.4062 17.3805 20.8651 16.3503 19.5114 16.3503C18.4784 16.3503 17.8631 17.0448 17.5928 17.7156C17.494 17.956 17.4697 18.291 17.4697 18.6268V24.9013H13.73C13.73 24.9013 13.7793 14.7206 13.73 13.6663H17.4697V15.2577C17.966 14.4927 18.8548 13.4022 20.8401 13.4022Z" fill="white"/>
</svg>
