<svg width="20" height="21" viewBox="0 0 20 21" fill="none" xmlns="http://www.w3.org/2000/svg">
<path fill-rule="evenodd" clip-rule="evenodd" d="M2.22222 0H17.7778C19 0 20 0.9 20 2V16C20 17.1 19 18 17.7778 18H13.3333L10 21L6.66667 18H2.22222C0.988889 18 0 17.1 0 16V2C0 0.9 0.988889 0 2.22222 0ZM12.4111 16H17.7777V2H2.22219V16H7.58886L8.2333 16.58L9.99997 18.17L11.7555 16.59L12.4111 16ZM8.8889 13H11.1111V15H8.8889V13ZM12.2223 7C12.2223 5.9 11.2223 5 10.0001 5C8.77783 5 7.77783 5.9 7.77783 7H5.55561C5.55561 4.79 7.5445 3 10.0001 3C12.4556 3 14.4445 4.79 14.4445 7C14.4445 8.28292 13.5667 8.97332 12.712 9.64554C11.9012 10.2833 11.1112 10.9046 11.1112 12H8.88895C8.88895 10.1787 9.93574 9.45659 10.8561 8.82168C11.5781 8.32361 12.2223 7.87922 12.2223 7Z" fill="#162441" fill-opacity="0.7"/>
</svg>
