<svg width="20" height="20" viewBox="0 0 20 20" fill="none" xmlns="http://www.w3.org/2000/svg">
<path fill-rule="evenodd" clip-rule="evenodd" d="M2.21111 0H17.7778C19 0 20 1 20 2.22222V17.7778C20 19 19 20 17.7778 20H2.21111C0.977778 20 0 19 0 17.7778V2.22222C0 1 0.977778 0 2.21111 0ZM11.6111 6.66667H14.4444L9.99997 11.1111L5.55552 6.66667H8.38885V3.33333H11.6111V6.66667ZM2.22219 17.7778V14.4444H6.17774C6.94441 15.7667 8.36663 16.6667 10.0111 16.6667C11.6555 16.6667 13.0666 15.7667 13.8444 14.4444H17.7777V17.7778H2.22219ZM12.2333 12.2222H17.7778V2.22223H2.2111L2.22221 12.2222H7.78888C7.78888 13.4444 8.78888 14.4444 10.0111 14.4444C11.2333 14.4444 12.2333 13.4444 12.2333 12.2222Z" fill="#3D5879"/>
</svg>
