<svg width="18" height="18" viewBox="0 0 18 18" fill="none" xmlns="http://www.w3.org/2000/svg">
<path fill-rule="evenodd" clip-rule="evenodd" d="M7.2 4.5H3.77376C4.99819 2.77083 6.84574 1.8 9 1.8C12.9765 1.8 16.2 5.02355 16.2 9H18C18 4.02944 13.9706 0 9 0C6.47619 0 4.2526 1.06426 2.7 2.94331V0H0.9V6.3H7.2V4.5ZM10.8 13.5H14.2262C13.0018 15.2292 11.1543 16.2 9 16.2C5.02355 16.2 1.8 12.9764 1.8 9H0C0 13.9706 4.02944 18 9 18C11.5238 18 13.7474 16.9357 15.3 15.0567V18H17.1V11.7H10.8V13.5Z" fill="#3D5879"/>
</svg>
