<svg width="33" height="33" viewBox="0 0 33 33" fill="none" xmlns="http://www.w3.org/2000/svg">
<path fill-rule="evenodd" clip-rule="evenodd" d="M0 16.5C0 7.3873 7.3873 0 16.5 0C25.6127 0 33 7.3873 33 16.5C33 25.6127 25.6127 33 16.5 33C7.3873 33 0 25.6127 0 16.5Z" fill="#F8991D"/>
<path fill-rule="evenodd" clip-rule="evenodd" d="M25.3 23.1H22.3669C22.3669 16.2255 16.7746 10.6331 9.9002 10.6331V7.69995C18.3916 7.69995 25.3 14.6085 25.3 23.1ZM9.90015 20.9C9.90015 19.6851 10.8852 18.7 12.1001 18.7C13.3151 18.7 14.3001 19.6851 14.3001 20.9C14.3001 22.115 13.3151 23.1 12.1001 23.1C10.8852 23.1 9.90015 22.115 9.90015 20.9ZM17.2335 23.1H20.1666C20.1666 17.4389 15.561 12.8332 9.8999 12.8332V15.7669C13.9435 15.7669 17.2335 19.0564 17.2335 23.1Z" fill="white"/>
</svg>
