<svg width="23" height="20" viewBox="0 0 23 20" fill="none" xmlns="http://www.w3.org/2000/svg">
<path d="M3.70567 14.4444L8.30567 17.7777V15.5555H13.4168C16.9454 15.5555 19.8057 13.0683 19.8057 9.99995C19.8057 9.21439 19.6159 8.46772 19.2773 7.7905L17.169 9.31828C17.222 9.53828 17.2501 9.76606 17.2501 9.99995C17.2501 11.8416 15.5341 13.3333 13.4168 13.3333H8.30567V11.1111L3.70567 14.4444ZM3.72228 12.2094L5.83125 10.6822C5.77822 10.4616 5.75011 10.2338 5.75011 9.99995C5.75011 8.15883 7.46681 6.66661 9.58344 6.66661L14.6946 6.66661L14.6946 8.88883L19.2946 5.5555L14.6946 2.22217V4.44439H9.58344C6.0555 4.44439 3.19456 6.93161 3.19456 9.99995C3.19456 10.7855 3.38431 11.5322 3.72228 12.2094Z" fill="#3B88C3"/>
</svg>
