<svg width="24" height="24" viewBox="0 0 24 24" fill="none" xmlns="http://www.w3.org/2000/svg">
<path d="M12 24C18.6274 24 24 18.6274 24 12C24 5.37258 18.6274 0 12 0C5.37258 0 0 5.37258 0 12C0 18.6274 5.37258 24 12 24Z" fill="#FFCC4D"/>
<path d="M16.9901 18.2528C16.9601 18.1335 16.2115 15.3335 12.0001 15.3335C7.78812 15.3335 7.04012 18.1335 7.01012 18.2528C6.97345 18.3975 7.03878 18.5475 7.16812 18.6222C7.29812 18.6962 7.46078 18.6742 7.56812 18.5708C7.58078 18.5582 8.87078 17.3335 12.0001 17.3335C15.1295 17.3335 16.4201 18.5582 16.4321 18.5702C16.4961 18.6335 16.5815 18.6668 16.6668 18.6668C16.7228 18.6668 16.7795 18.6528 16.8308 18.6242C16.9615 18.5495 17.0268 18.3982 16.9901 18.2528Z" fill="#664500"/>
<path d="M8.00016 11.3332C8.92064 11.3332 9.66683 10.2885 9.66683 8.99984C9.66683 7.71117 8.92064 6.6665 8.00016 6.6665C7.07969 6.6665 6.3335 7.71117 6.3335 8.99984C6.3335 10.2885 7.07969 11.3332 8.00016 11.3332Z" fill="#664500"/>
<path d="M16.0002 11.3332C16.9206 11.3332 17.6668 10.2885 17.6668 8.99984C17.6668 7.71117 16.9206 6.6665 16.0002 6.6665C15.0797 6.6665 14.3335 7.71117 14.3335 8.99984C14.3335 10.2885 15.0797 11.3332 16.0002 11.3332Z" fill="#664500"/>
</svg>