<svg width="24" height="24" viewBox="0 0 24 24" fill="none" xmlns="http://www.w3.org/2000/svg">
<path d="M12 24C18.6274 24 24 18.6274 24 12C24 5.37258 18.6274 0 12 0C5.37258 0 0 5.37258 0 12C0 18.6274 5.37258 24 12 24Z" fill="#FFCC4D"/>
<path d="M4.00065 7.33336C3.63265 7.33336 3.33398 7.03469 3.33398 6.66669C3.33398 6.29936 3.63065 6.00136 3.99798 6.00002C4.10198 5.99869 6.37732 5.94269 8.13465 3.60002C8.35532 3.30669 8.77265 3.24536 9.06798 3.46669C9.36265 3.68736 9.42198 4.10536 9.20132 4.40002C7.02598 7.30002 4.12332 7.33336 4.00065 7.33336ZM20.658 8.92869C20.7433 9.28669 20.522 9.64669 20.164 9.73202C19.8067 9.81736 19.448 9.59736 19.3613 9.24069C19.336 9.14002 18.754 6.93936 16.0673 5.77336C15.7307 5.62669 15.5747 5.23469 15.7213 4.89669C15.868 4.55869 16.2607 4.40402 16.598 4.55069C19.924 5.99402 20.6293 8.80936 20.658 8.92869Z" fill="#65471B"/>
<path d="M15.4572 19.6841C14.7952 19.6841 14.1559 19.3808 13.5986 18.7915C11.7212 16.8015 11.2192 17.2361 10.3872 17.9575C9.86657 18.4101 9.21791 18.9728 8.25057 18.9728C6.68324 18.9728 5.60457 17.4381 5.55991 17.3728C5.35057 17.0701 5.42657 16.6548 5.72924 16.4455C6.02991 16.2375 6.44524 16.3121 6.65591 16.6128C6.85657 16.8988 7.53391 17.6395 8.25124 17.6395C8.72057 17.6395 9.08857 17.3201 9.51457 16.9508C10.7252 15.8988 12.0239 15.1808 14.5699 17.8761C15.1186 18.4581 15.5379 18.3921 15.8419 18.2708C16.9479 17.8275 17.9786 15.8055 17.9732 14.8375C17.9712 14.4695 18.2679 14.1695 18.6359 14.1675H18.6399C19.0066 14.1675 19.3046 14.4635 19.3066 14.8308C19.3146 16.2328 18.0706 18.8148 16.3372 19.5088C16.0419 19.6255 15.7472 19.6835 15.4572 19.6841Z" fill="#664500"/>
<path d="M9.87659 10.25C9.48726 11.6594 8.78192 12.3054 7.77526 12.0274C6.76926 11.7494 6.21326 10.7547 6.60192 9.34535C6.99059 7.93735 8.05192 7.10335 9.05792 7.38135C10.0653 7.65935 10.2659 8.84135 9.87659 10.25ZM17.4873 9.74669C17.8026 11.174 17.0373 12.972 16.0179 13.1974C14.9986 13.4227 13.8313 12.0514 13.5159 10.624C13.2006 9.19735 13.7953 7.97669 14.8146 7.75135C15.8339 7.52602 17.1719 8.32002 17.4873 9.74669Z" fill="#65471B"/>
</svg>