<svg width="35" height="35" viewBox="0 0 35 35" fill="none" xmlns="http://www.w3.org/2000/svg">
<g id="sim_card_24px">
<path id="icon/hardware/sim_card_24px" fill-rule="evenodd" clip-rule="evenodd" d="M14.583 2.9165H26.2497C27.8538 2.9165 29.1663 4.229 29.1663 5.83317V29.1665C29.1663 30.7707 27.8538 32.0832 26.2497 32.0832H8.74967C7.14551 32.0832 5.83301 30.7707 5.83301 29.1665V11.6665L14.583 2.9165ZM26.2497 29.1665V5.83317H15.7934L8.74967 12.8769V29.1665H26.2497ZM10.208 24.7915H13.1247V27.7082H10.208V24.7915ZM24.7913 24.7915H21.8747V27.7082H24.7913V24.7915ZM10.208 16.0415H13.1247V21.8748H10.208V16.0415ZM18.958 21.8748H16.0413V27.7082H18.958V21.8748ZM16.0413 16.0415H18.958V18.9582H16.0413V16.0415ZM24.7913 16.0415H21.8747V21.8748H24.7913V16.0415Z" fill="#4976EF" fill-opacity="0.5"/>
</g>
</svg>
