<svg width="24" height="24" viewBox="0 0 24 24" fill="none" xmlns="http://www.w3.org/2000/svg">
    <path d="M24 12C24 18.6273 18.6273 24 12 24C5.37333 24 0 18.6273 0 12C0 5.37333 5.37333 0 12 0C18.6273 0 24 5.37333 24 12Z" fill="#FFCC4D"/>
    <path d="M18.9712 11.8645C18.9312 11.7745 17.9718 9.6665 15.9998 9.6665C14.0285 9.6665 13.0685 11.7745 13.0285 11.8645C12.9672 12.0025 13.0072 12.1638 13.1252 12.2585C13.2418 12.3532 13.4092 12.3565 13.5318 12.2678C13.5398 12.2618 14.3732 11.6665 15.9998 11.6665C17.6172 11.6665 18.4492 12.2538 18.4678 12.2672C18.5265 12.3112 18.5972 12.3332 18.6665 12.3332C18.7398 12.3332 18.8138 12.3085 18.8745 12.2605C18.9925 12.1658 19.0332 12.0032 18.9712 11.8645ZM10.9712 11.8645C10.9312 11.7745 9.97184 9.6665 7.99984 9.6665C6.0285 9.6665 5.0685 11.7745 5.0285 11.8645C4.96717 12.0025 5.00717 12.1638 5.1245 12.2585C5.24184 12.3532 5.40917 12.3565 5.53117 12.2678C5.53984 12.2618 6.3725 11.6665 7.99984 11.6665C9.61717 11.6665 10.4492 12.2538 10.4678 12.2672C10.5265 12.3112 10.5972 12.3332 10.6665 12.3332C10.7398 12.3332 10.8138 12.3085 10.8745 12.2605C10.9932 12.1658 11.0325 12.0032 10.9712 11.8645ZM11.9998 14.6665C9.5845 14.6665 7.98184 14.3852 5.99984 13.9998C5.54717 13.9125 4.6665 13.9998 4.6665 15.3332C4.6665 17.9998 7.72984 21.3332 11.9998 21.3332C16.2692 21.3332 19.3332 17.9998 19.3332 15.3332C19.3332 13.9998 18.4525 13.9118 17.9998 13.9998C16.0178 14.3852 14.4152 14.6665 11.9998 14.6665Z" fill="#664500"/>
    <path d="M6 15.3335C6 15.3335 8 16.0002 12 16.0002C16 16.0002 18 15.3335 18 15.3335C18 15.3335 16.6667 18.0002 12 18.0002C7.33333 18.0002 6 15.3335 6 15.3335Z" fill="white"/>
    </svg>
    