<svg width="21" height="20" viewBox="0 0 21 20" fill="none" xmlns="http://www.w3.org/2000/svg">
<path d="M17.0623 11.6251C16.4384 12.3132 16.03 13.6466 16.1532 14.5865L16.7172 18.8319C16.8417 19.7724 16.274 20.2075 15.4553 19.8001L11.7563 17.9572C10.9376 17.5486 9.60176 17.5545 8.78496 17.9691L5.10177 19.8423C4.28561 20.2569 3.71536 19.8252 3.83295 18.8853L4.3659 14.6346C4.48348 13.6941 4.0656 12.3647 3.43656 11.6812L0.595466 8.59123C-0.0342037 7.90773 0.181376 7.20577 1.07278 7.03242L5.09988 6.24939C5.99128 6.07605 7.06981 5.24886 7.49781 4.41113L9.42664 0.629787C9.85338 -0.207947 10.5576 -0.209924 10.9901 0.623855L12.9467 4.38937C13.3804 5.22315 14.464 6.04177 15.3579 6.20721L19.3901 6.95926C20.2828 7.12536 20.5034 7.82534 19.8794 8.51411L17.0623 11.6251Z" fill="#FFAC33"/>
</svg>