<svg width="35" height="35" viewBox="0 0 35 35" fill="none" xmlns="http://www.w3.org/2000/svg">
<g id="supervised_user_circle_24px">
<path id="icon/action/supervised_user_circle_24px" fill-opacity="0.5" fill-rule="evenodd" clip-rule="evenodd" d="M17.5003 2.9165C9.45033 2.9165 2.91699 9.44984 2.91699 17.4998C2.91699 25.5498 9.45033 32.0832 17.5003 32.0832C25.5503 32.0832 32.0837 25.5498 32.0837 17.4998C32.0837 9.44984 25.5503 2.9165 17.5003 2.9165ZM18.2441 14.5686C18.2441 12.1623 16.2753 10.1936 13.8691 10.1936C11.4628 10.1936 9.49408 12.1623 9.49408 14.5686C9.49408 16.9748 11.4628 18.9436 13.8691 18.9436C16.2753 18.9436 18.2441 16.9748 18.2441 14.5686ZM13.8691 16.0269C13.067 16.0269 12.4107 15.3707 12.4107 14.5686C12.4107 13.7665 13.067 13.1103 13.8691 13.1103C14.6712 13.1103 15.3274 13.7665 15.3274 14.5686C15.3274 15.3707 14.6712 16.0269 13.8691 16.0269ZM26.2649 16.0269C26.2649 17.6457 24.967 18.9436 23.3482 18.9436C21.7295 18.9436 20.4316 17.6457 20.4316 16.0269C20.417 14.4082 21.7295 13.1103 23.3482 13.1103C24.967 13.1103 26.2649 14.4082 26.2649 16.0269ZM13.8691 23.3332C11.842 23.3332 9.52324 24.1644 8.53158 24.9519C10.5295 27.3582 13.4753 28.9332 16.7857 29.1228V25.0686C16.7857 22.3123 21.1316 21.1311 23.3482 21.1311C24.6316 21.1311 26.6149 21.5394 28.0732 22.3998C28.7732 20.8978 29.167 19.2353 29.167 17.4853C29.167 11.054 23.9316 5.81859 17.5003 5.81859C11.0691 5.81859 5.83366 11.054 5.83366 17.4853C5.83366 19.279 6.24199 20.9707 6.97116 22.4873C8.92533 21.0582 11.9732 20.4019 13.8691 20.4019C14.5107 20.4019 15.2837 20.4894 16.1003 20.6353C15.1816 21.4665 14.5545 22.4144 14.2045 23.3478C14.1442 23.3478 14.0839 23.3439 14.0257 23.3401C13.9712 23.3366 13.9184 23.3332 13.8691 23.3332Z" fill="#4976EF"/>
</g>
</svg>
