<svg width="25" height="24" viewBox="0 0 25 24" fill="none" xmlns="http://www.w3.org/2000/svg">
<path d="M20.4338 13.7993C20.4338 13.4431 20.3251 13.1193 20.1077 12.8926L9.97185 0.9756C9.78163 0.748918 9.53707 0.619393 9.26533 0.619393L1.1675 0.00410595C0.841415 -0.0282772 0.542502 0.133623 0.32511 0.392688C0.107719 0.651753 -0.000976562 1.008 -0.000976562 1.3966L0.515328 10.8848C0.542502 11.2087 0.651197 11.5001 0.841415 11.7268L11.0045 23.6114C11.2218 23.8705 11.4936 24 11.7653 24C12.0371 24 12.3088 23.8705 12.5262 23.6114L20.1077 14.7384C20.3251 14.4794 20.4338 14.1555 20.4338 13.7993ZM11.7653 20.8588L2.66207 10.2048L2.25446 2.69192L8.72185 3.17767L17.7979 13.7993L11.7653 20.8588ZM7.06424 5.57399C7.36315 5.9302 7.55337 6.44836 7.55337 6.9341C7.55337 7.45223 7.39033 7.93796 7.06424 8.29418C6.76533 8.65039 6.33055 8.87709 5.89576 8.87709C5.46098 8.87709 5.05337 8.68278 4.72728 8.29418C4.42837 7.93796 4.23815 7.41985 4.23815 6.9341C4.23815 6.41597 4.4012 5.9302 4.72728 5.57399C5.0262 5.21777 5.46098 4.99111 5.89576 4.99111C6.33055 4.99111 6.76533 5.21777 7.06424 5.57399ZM24.999 13.7993C24.999 14.0908 24.8903 14.3822 24.7273 14.6089L17.1458 23.4819C16.9555 23.7086 16.711 23.8057 16.4664 23.8057C16.2218 23.8057 15.9773 23.7086 15.7871 23.4819C15.4066 23.0285 15.4066 22.3161 15.7871 21.8951L22.6892 13.8317L13.2327 2.75667C12.8523 2.30331 12.8523 1.59087 13.2327 1.16989C13.6132 0.716527 14.211 0.716527 14.5914 1.16989L24.7545 13.0545C24.8903 13.2164 24.999 13.5079 24.999 13.7993Z" fill="#4976EF" fill-opacity="0.5"/>
</svg>
