<svg width="20" height="20" viewBox="0 0 20 20" fill="none" xmlns="http://www.w3.org/2000/svg">
<path d="M16.3478 11.4994C16.3478 11.2026 16.2609 10.9327 16.087 10.7438L7.97826 0.813C7.82609 0.624098 7.63043 0.516161 7.41304 0.516161L0.934783 0.00342162C0.673913 -0.0235643 0.434783 0.111352 0.26087 0.32724C0.0869565 0.543127 0 0.839999 0 1.16383L0.413043 9.07069C0.434783 9.34055 0.521739 9.58342 0.673913 9.77232L8.80435 19.6762C8.97826 19.8921 9.19565 20 9.41304 20C9.63043 20 9.84783 19.8921 10.0217 19.6762L16.087 12.282C16.2609 12.0661 16.3478 11.7963 16.3478 11.4994ZM9.41304 17.3824L2.13043 8.50399L1.80435 2.24327L6.97826 2.64806L14.2391 11.4994L9.41304 17.3824ZM5.65217 4.64499C5.8913 4.94184 6.04348 5.37363 6.04348 5.77842C6.04348 6.21019 5.91304 6.61497 5.65217 6.91182C5.41304 7.20866 5.06522 7.39758 4.71739 7.39758C4.36957 7.39758 4.04348 7.23565 3.78261 6.91182C3.54348 6.61497 3.3913 6.18321 3.3913 5.77842C3.3913 5.34664 3.52174 4.94184 3.78261 4.64499C4.02174 4.34814 4.36957 4.15926 4.71739 4.15926C5.06522 4.15926 5.41304 4.34814 5.65217 4.64499ZM20 11.4994C20 11.7423 19.913 11.9852 19.7826 12.1741L13.7174 19.5682C13.5652 19.7571 13.3696 19.8381 13.1739 19.8381C12.9783 19.8381 12.7826 19.7571 12.6304 19.5682C12.3261 19.1904 12.3261 18.5967 12.6304 18.2459L18.1522 11.5264L10.587 2.29723C10.2826 1.91942 10.2826 1.32573 10.587 0.974909C10.8913 0.597106 11.3696 0.597106 11.6739 0.974909L19.8043 10.8788C19.913 11.0137 20 11.2566 20 11.4994Z" fill="#3D5879"/>
</svg>
