<svg width="7" height="25" viewBox="0 0 7 25" fill="none" xmlns="http://www.w3.org/2000/svg">
<path fill-rule="evenodd" clip-rule="evenodd" d="M8.34465e-07 3.50049C8.34465e-07 5.43348 1.567 7.00049 3.5 7.00049C5.433 7.00049 7 5.43348 7 3.50049C7 1.56749 5.433 0.000488281 3.5 0.000488281C1.567 0.000488281 8.34465e-07 1.56749 8.34465e-07 3.50049ZM8.34465e-07 12.5005C8.34465e-07 14.4335 1.567 16.0005 3.5 16.0005C5.433 16.0005 7 14.4335 7 12.5005C7 10.5675 5.433 9.00049 3.5 9.00049C1.567 9.00049 8.34465e-07 10.5675 8.34465e-07 12.5005ZM3.5 25.0005C1.567 25.0005 8.34465e-07 23.4335 8.34465e-07 21.5005C8.34465e-07 19.5675 1.567 18.0005 3.5 18.0005C5.433 18.0005 7 19.5675 7 21.5005C7 23.4335 5.433 25.0005 3.5 25.0005Z" fill="#007AFF"/>
</svg>
