<svg width="60" height="60" viewBox="0 0 60 60" fill="none" xmlns="http://www.w3.org/2000/svg">
<path fill-rule="evenodd" clip-rule="evenodd" d="M0 30C0 13.4315 13.4315 0 30 0C46.5685 0 60 13.4315 60 30C60 46.5685 46.5685 60 30 60C13.4315 60 0 46.5685 0 30Z" fill="#45B035"/>
<path fill-rule="evenodd" clip-rule="evenodd" d="M19.314 23.775C18.206 23.775 17.308 22.904 17.308 21.832C17.308 20.759 18.206 19.891 19.314 19.891C20.422 19.891 21.322 20.759 21.322 21.832C21.322 22.904 20.422 23.775 19.314 23.775ZM29.256 19.891C30.364 19.891 31.261 20.759 31.261 21.832C31.261 22.904 30.364 23.775 29.256 23.775C28.147 23.775 27.251 22.904 27.251 21.832C27.251 20.759 28.147 19.891 29.256 19.891ZM37.803 24.107C38.005 24.107 38.205 24.109 38.404 24.12C37.352 18.387 31.431 14 24.285 14C16.395 14 10 19.349 10 25.947C10 29.816 12.198 33.255 15.607 35.438C15.651 35.466 15.738 35.521 15.738 35.521L14.358 39.844L19.522 37.214C19.522 37.214 19.684 37.26 19.765 37.284C21.184 37.679 22.706 37.893 24.285 37.893C24.607 37.893 24.927 37.88 25.245 37.864C24.952 36.955 24.791 36 24.791 35.014C24.791 28.989 30.619 24.107 37.803 24.107Z" fill="white"/>
<path fill-rule="evenodd" clip-rule="evenodd" d="M32.0163 31.6072C32.0163 30.7032 32.7763 29.9682 33.7113 29.9682C34.6483 29.9682 35.4073 30.7032 35.4073 31.6072C35.4073 32.5152 34.6483 33.2512 33.7113 33.2512C32.7763 33.2512 32.0163 32.5152 32.0163 31.6072ZM40.4153 31.6072C40.4153 30.7032 41.1733 29.9682 42.1093 29.9682C43.0463 29.9682 43.8043 30.7032 43.8043 31.6072C43.8043 32.5152 43.0463 33.2512 42.1093 33.2512C41.1733 33.2512 40.4153 32.5152 40.4153 31.6072ZM25.8413 35.0842C25.8413 40.6592 31.2463 45.1782 37.9123 45.1782C39.2453 45.1782 40.5313 44.9962 41.7293 44.6612C41.7983 44.6432 41.9353 44.6022 41.9353 44.6022L46.2963 46.8262L45.1303 43.1722C45.1303 43.1722 45.2043 43.1262 45.2413 43.1032C48.1203 41.2592 49.9783 38.3542 49.9783 35.0842C49.9783 29.5112 44.5753 24.9922 37.9123 24.9922C31.2463 24.9922 25.8413 29.5112 25.8413 35.0842Z" fill="white"/>
</svg>