<svg width="33" height="33" viewBox="0 0 33 33" fill="none" xmlns="http://www.w3.org/2000/svg">
<path fill-rule="evenodd" clip-rule="evenodd" d="M0 16.5C0 7.3873 7.3873 0 16.5 0C25.6127 0 33 7.3873 33 16.5C33 25.6127 25.6127 33 16.5 33C7.3873 33 0 25.6127 0 16.5Z" fill="#FF0000"/>
<path fill-rule="evenodd" clip-rule="evenodd" d="M24.9324 12.4253C24.73 11.6477 24.1336 11.0354 23.3763 10.8276C22.0039 10.45 16.5002 10.45 16.5002 10.45C16.5002 10.45 10.9965 10.45 9.624 10.8276C8.8667 11.0354 8.2703 11.6477 8.0679 12.4253C7.7002 13.8345 7.7002 16.775 7.7002 16.775C7.7002 16.775 7.7002 19.7153 8.0679 21.1246C8.2703 21.9022 8.8667 22.5145 9.624 22.7224C10.9965 23.1 16.5002 23.1 16.5002 23.1C16.5002 23.1 22.0039 23.1 23.3763 22.7224C24.1336 22.5145 24.73 21.9022 24.9324 21.1246C25.3002 19.7153 25.3002 16.775 25.3002 16.775C25.3002 16.775 25.3002 13.8345 24.9324 12.4253Z" fill="white"/>
<path fill-rule="evenodd" clip-rule="evenodd" d="M14.8501 19.8V14.3L19.2501 17.0502L14.8501 19.8Z" fill="#FF0000"/>
</svg>
